<?xml version="1.0" encoding="UTF-8" standalone="no"?>
<svg
   version="1.1"
   viewBox="0 0 256 130"
   id="svg280"
   sodipodi:docname="logo-text.svg"
   inkscape:version="1.2.1 (9c6d41e410, 2022-07-14)"
   width="256"
   height="130"
   xmlns:inkscape="http://www.inkscape.org/namespaces/inkscape"
   xmlns:sodipodi="http://sodipodi.sourceforge.net/DTD/sodipodi-0.dtd"
   xmlns="http://www.w3.org/2000/svg"
   xmlns:svg="http://www.w3.org/2000/svg">
  <defs
     id="defs284" />
  <sodipodi:namedview
     id="namedview282"
     pagecolor="#ffffff"
     bordercolor="#000000"
     borderopacity="0.25"
     inkscape:showpageshadow="2"
     inkscape:pageopacity="0.0"
     inkscape:pagecheckerboard="0"
     inkscape:deskcolor="#d1d1d1"
     showgrid="false"
     inkscape:zoom="1.2974008"
     inkscape:cx="118.31348"
     inkscape:cy="106.7519"
     inkscape:window-width="1920"
     inkscape:window-height="991"
     inkscape:window-x="209"
     inkscape:window-y="1341"
     inkscape:window-maximized="1"
     inkscape:current-layer="svg280" />
  <g
     id="g326"
     transform="translate(0,-62.999997)">
    <g
       id="g1151"
       transform="matrix(0.93247091,0,0,0.93247091,-390.92006,-4.0953957)">
      <path
         fill="#4e4050"
         d="m 534.02897,93.62 q -0.09,3.92 3.22,6.14 a 1.15,1.15 0 0 1 -0.6,2.1 l -9.84,0.28 a 0.9,0.9 0 0 1 -0.57,-1.62 l 2.31,-1.77 a 1,1.02 70 0 0 0.4,-0.84 l -0.58,-13.73 a 0.76,0.76 0 0 0 -0.36,-0.61 l -2.36,-1.5 a 1.12,1.12 0 0 1 0.5,-2.06 l 17.26,-1.46 q 0.96,-0.08 1.07,0.88 0.35,3.23 -0.41,6.49 a 1.53,1.52 42.4 0 1 -2.93,0.13 q -1.58,-4.7 -6.57,-3.09 a 1.12,1.12 0 0 0 -0.77,1.13 l 0.29,4.25 a 0.81,0.8 0 0 0 0.76,0.75 l 5,0.25 a 1.7100658,1.7100658 0 0 1 -0.03,3.42 l -5.09,0.16 q -0.68,0.02 -0.7,0.7 z"
         id="path110" />
      <path
         fill="#4e4050"
         d="m 579.06897,97.35 1.8,2.02 a 1.57,1.57 0 0 1 -1.53,2.58 q -3.31,-0.77 -6.54,-0.31 a 1.31,1.32 23.1 0 1 -0.95,-2.37 c 1.24,-0.89 2.44,-1.82 3.27,-3.26 q 4.15,-7.26 7.92,-14.73 c 0.76,-1.5 1.89,-2.51 3.52,-2.56 a 1.93,1.94 79.7 0 1 1.9,1.31 q 2.62,7.82 4.75,15.27 c 0.71,2.5 2.32,4.03 3.64,6.17 a 0.85,0.85 0 0 1 -0.75,1.3 l -10.07,-0.22 a 0.74,0.73 86.7 0 1 -0.7,-0.63 q -0.32,-2.39 1.95,-2.99 a 1.52,1.52 0 0 0 -0.35,-2.99 l -7.1,-0.22 a 0.98,0.98 0 0 0 -0.76,1.63 z m 2.86,-6.61 a 0.83,0.83 0 0 0 0.75,1.14 l 2.58,0.08 a 0.83,0.83 0 0 0 0.85,-0.96 l -0.77,-4.72 a 0.83,0.83 0 0 0 -1.59,-0.17 z"
         id="path112" />
      <path
         fill="#4e4050"
         d="m 481.28897,104.2 q 0.79,2.13 2.63,3.35 a 1.08,1.08 0 0 1 -0.38,1.96 l -8.51,1.69 a 0.57,0.57 0 0 1 -0.64,-0.78 c 0.92,-2.14 2.23,-3.56 2.68,-5.78 q 1.59,-7.84 3.1,-15.65 0.54,-2.8 2.77,-3.4 a 2.72,2.71 66.7 0 1 3.01,1.21 q 4.14,6.78 8.67,13.49 c 1.2,1.78 2.78,2.79 4.4,4.16 a 1.08,1.08 0 0 1 -0.46,1.88 l -9.57,2.13 a 1.07,1.07 0 0 1 -1.28,-1.23 q 0.32,-1.83 1.69,-3.1 a 0.9,0.89 56.4 0 0 0.2,-1.04 q -0.62,-1.32 -2.53,-0.92 -3.46,0.71 -5.12,0.93 a 0.83,0.82 76 0 0 -0.66,1.1 z m 1.33,-10.54 -0.58,4.3 a 0.62,0.62 0 0 0 0.7,0.7 l 2.9,-0.39 a 0.6,0.59 86.1 0 0 0.51,-0.59 q 0,-0.51 -0.35,-0.87 -0.26,-0.26 -0.39,-0.61 -0.55,-1.62 -1.76,-2.88 a 0.6,0.6 0 0 0 -1.03,0.34 z"
         id="path116" />
      <path
         fill="#4e4050"
         d="m 636.22897,96.86 3.55,0.29 a 1.74,1.74 0 0 1 0.95,3.09 c -1.58,1.26 -4.77,-0.12 -6.26,-0.45 a 1.11,1.11 0 0 0 -1.32,0.84 l -0.96,4.2 a 0.98,0.98 0 0 0 0.91,1.19 l 5.09,0.25 a 0.85,0.84 12.9 0 0 0.82,-0.51 q 1.45,-3.32 4.88,-1.96 a 0.63,0.62 20.1 0 1 0.37,0.78 l -1.99,5.96 a 1.14,1.13 16 0 1 -1.34,0.74 l -17.28,-4.16 a 0.9,0.9 0 0 1 -0.02,-1.74 l 2.48,-0.65 a 1.03,1.04 89 0 0 0.74,-0.76 l 3.23,-13.53 a 0.87,0.89 33.7 0 0 -0.13,-0.68 l -1.88,-2.67 a 1.2,1.2 0 0 1 1.25,-1.85 l 17.39,3.94 q 0.51,0.11 0.52,0.64 0.01,3.45 -1.72,6.41 a 1.65,1.65 0 0 1 -3.07,-0.65 q -0.54,-4.89 -5.52,-4.83 a 1.75,1.75 0 0 0 -1.71,1.58 l -0.28,2.98 q -0.14,1.43 1.3,1.55 z"
         id="path118" />
      <path
         fill="#4e4050"
         d="m 672.77897,117.4 a 1.8,1.8 0 0 0 1.73,-1.13 q 1.77,-4.4 3.78,-9 c 1.12,-2.57 1.28,-4.32 -0.35,-6.55 a 1.3,1.3 0 0 1 1.58,-1.95 l 8.86,3.97 a 0.95027628,0.95027628 0 0 1 -0.61,1.8 c -2.1,-0.51 -3.14,1.1 -3.79,2.95 q -1.9,5.41 -4.51,10.36 a 1.55,1.55 0 0 0 0.6,2.07 q 4.51,2.58 7.91,-1.17 a 1.39,1.4 36.8 0 1 1.77,-0.26 q 2.07,1.25 1.14,2.89 -1.39,2.44 -2.8,4.85 a 0.53,0.54 25.7 0 1 -0.65,0.23 l -16.76,-6.61 q -0.39,-0.15 -0.33,-0.57 0.27,-1.94 2.43,-1.88 z"
         id="path122" />
      <path
         fill="#4e4050"
         d="m 434.52897,116.39 q 0.65,3.13 3.7,3.68 a 1.47,1.47 0 0 1 0.27,2.82 l -8.41,3.24 a 1.29,1.29 0 0 1 -1.4,-2.1 l 1.57,-1.67 a 0.85,0.85 0 0 0 0.2,-0.86 q -1.67,-5.35 -3.51,-10.6 c -0.9,-2.56 -2.45,-3.97 -4.74,-5.09 a 0.7,0.7 0 0 1 0.04,-1.27 c 4.05,-1.72 11.51,-5.45 15.52,-4.4 5.02,1.31 6.45,6.46 3.64,10.52 a 1.29,1.28 37.6 0 0 0.23,1.72 q 3.77,3.18 8.44,4.75 a 0.58,0.58 0 0 1 0.33,0.8 q -0.78,1.64 -2.69,1.85 -6.59,0.76 -10.66,-4.54 a 1.43,1.43 0 0 0 -2.53,1.15 z m -2.07,-6.05 a 1.88,1.88 0 0 0 3.41,0.34 l 0.95,-1.64 a 1.88,1.88 0 0 0 0.21,-1.3 l -0.42,-2.18 a 1.88,1.88 0 0 0 -2.02,-1.51 l -1.76,0.16 a 1.88,1.88 0 0 0 -1.61,2.48 z"
         id="path126" />
    </g>
    <g
       id="g1158"
       transform="matrix(0.93247091,0,0,0.93247091,-390.92006,-578.39784)">
      <path
         fill="#4e4050"
         d="m 457.83897,787 -2.14,-3.49 a 0.89,0.89 0 0 1 0.98,-1.33 q 4.78,1.22 9.61,2.65 3.94,1.17 5.43,3.13 2.81,3.68 -1.26,7.87 -0.38,0.39 -0.19,0.9 c 0.64,1.69 1.61,3.22 1.38,5.03 -0.97,7.46 -7.17,6.59 -12.91,4.81 q -3.92,-1.22 -7.93,-2.37 a 1.06,1.06 0 0 1 -0.14,-1.98 l 2.76,-1.26 q 0.59,-0.27 0.77,-0.89 l 3.71,-12.56 a 0.63,0.62 37.4 0 0 -0.07,-0.51 z m 5.74,7.05 2.52,0.04 a 0.89,0.89 0 0 0 0.9,-0.88 l 0.02,-1.29 a 2.04,3.98 0.7 0 0 -1.99,-4.01 h -0.22 a 2.04,3.98 0.7 0 0 -2.09,3.95 l -0.02,1.29 a 0.89,0.89 0 0 0 0.88,0.9 z m 2.3122,6.7302 a 2.16,2.16 0 0 0 -1.5088,-2.656 l -1.8125,-0.4993 a 2.16,2.16 0 0 0 -2.6561,1.5089 l -0.547,1.986 a 2.16,2.16 0 0 0 1.5088,2.656 l 1.8125,0.4993 a 2.16,2.16 0 0 0 2.6561,-1.5089 z"
         id="path268" />
      <path
         fill="#4e4050"
         d="m 662.10897,795.59 q 2.48,4.16 5.75,6.14 a 1.45,1.5 4.7 0 1 0.6,0.73 q 0.53,1.46 -1.25,2.03 -4.75,1.54 -9.33,2.44 a 0.85,0.85 0 0 1 -0.92,-1.23 l 1.97,-3.81 a 0.85,0.85 0 0 0 -0.93,-1.22 l -6.17,1.32 a 1.43,1.44 54.6 0 0 -0.45,2.63 q 1.7,1.03 2.56,2.84 a 0.63,0.63 0 0 1 -0.43,0.88 l -8.41,1.98 a 0.65,0.64 1.6 0 1 -0.77,-0.81 c 0.39,-1.3 1.35,-2.09 1.61,-3.43 q 1.68,-8.61 1.98,-17.3 0.93,-0.95 1.06,-2.74 a 1.26,1.24 71.3 0 1 0.4,-0.82 c 2.47,-2.28 4.21,-0.54 5.75,1.66 q 3.46,4.96 6.98,8.71 z m -10.31,1.9 a 0.64,0.64 0 0 0 0.91,0.51 l 1.91,-0.93 a 0.64,0.64 0 0 0 0.26,-0.93 l -2.39,-3.61 a 0.64,0.64 0 0 0 -1.17,0.41 z"
         id="path270" />
      <path
         fill="#4e4050"
         d="m 605.92897,799.32 1.17,13.39 a 0.94,0.95 6.8 0 0 0.62,0.8 l 2.38,0.85 a 1.47,1.47 0 0 1 -0.32,2.85 l -9.75,1.2 a 0.64,0.65 85.1 0 1 -0.73,-0.61 q -0.13,-2.57 2.29,-3.5 a 0.54,0.54 0 0 0 0.35,-0.57 l -1.36,-13.82 a 1.07,1.07 0 0 0 -1.19,-0.96 l -2.24,0.26 a 0.81,0.82 3.5 0 0 -0.71,0.63 l -0.74,3.36 a 1.31,1.31 0 0 1 -2.5,0.2 q -1.31,-3.28 -0.84,-6.74 a 0.71,0.71 0 0 1 0.67,-0.61 q 9.76,-0.47 19.29,-2.5 a 1.4,1.4 0 0 1 1.69,1.38 l -0.04,5.42 a 1.32,1.32 0 0 1 -2.31,0.86 q -2,-2.28 -5.04,-2.57 a 0.63,0.63 0 0 0 -0.69,0.68 z"
         id="path274" />
      <path
         fill="#4e4050"
         d="m 510.08897,808.26 -0.3,4.6 a 0.87,0.87 0 0 0 0.61,0.88 q 3.18,0.95 5.95,-0.66 a 1.65,1.65 0 0 0 0.71,-0.83 q 0.44,-1.08 1.41,-1.74 a 1.52,1.53 71.8 0 1 2.38,1.2 q 0.13,3.17 -1.2,6.06 a 1.11,1.09 16.2 0 1 -1.15,0.62 l -17.24,-2.45 a 1.01,1.01 0 0 1 -0.28,-1.91 l 2.07,-0.97 q 0.63,-0.29 0.82,-0.97 1.88,-6.8 2.22,-13.86 a 0.73,0.7 25.6 0 0 -0.2,-0.54 l -2.18,-2.4 a 1.04,1.04 0 0 1 0.91,-1.74 l 17.79,2.43 a 1.18,1.18 0 0 1 0.99,1.43 l -1.2,5.29 a 1.25,1.25 0 0 1 -1.8,0.83 q -2.22,-1.18 -2.81,-3.72 a 1.23,1.23 0 0 0 -0.99,-0.94 l -4.06,-0.69 a 0.7,0.7 0 0 0 -0.82,0.63 l -0.43,4.75 a 0.8,0.79 11.2 0 0 0.56,0.83 q 1.54,0.47 3.08,-0.13 1.32,-0.51 1.95,0.76 0.8,1.64 -0.03,3.12 a 0.66,0.65 18.7 0 1 -0.69,0.33 l -5.14,-0.93 a 0.79,0.79 0 0 0 -0.93,0.72 z"
         id="path276" />
      <path
         fill="#4e4050"
         d="m 560.91897,801.78 -0.23,13.97 a 1.27,1.3 18.2 0 0 0.52,1.06 l 2.27,1.69 a 0.95,0.96 57.5 0 1 -0.38,1.7 q -5.39,1.1 -10.56,-0.36 a 0.87,0.87 0 0 1 -0.07,-1.65 l 1.94,-0.72 q 0.64,-0.23 0.65,-0.92 l 0.23,-14.63 a 0.88,0.87 18.6 0 0 -0.37,-0.73 l -2.1,-1.45 a 1.14,1.14 0 0 1 0.69,-2.07 l 10.25,0.34 a 0.96,0.97 33.6 0 1 0.37,1.84 l -2.79,1.29 a 0.72,0.73 78.1 0 0 -0.42,0.64 z"
         id="path278" />
    </g>
  </g>
</svg>
